<?xml version="1.0" encoding="iso-8859-1"?>
<!-- Generator: Adobe Illustrator 19.0.0, SVG Export Plug-In . SVG Version: 6.00 Build 0)  -->
<svg version="1.1" id="Capa_1" xmlns="http://www.w3.org/2000/svg" xmlns:xlink="http://www.w3.org/1999/xlink" x="0px" y="0px"
	 viewBox="0 0 512 512" style="enable-background:new 0 0 512 512;" xml:space="preserve">
<path style="fill:#FC9D9A;" d="M110.933,42.667H332.8c14.14,0,25.6,11.46,25.6,25.6v375.467c0,14.14-11.46,25.6-25.6,25.6H110.933
	c-14.14,0-25.6-11.46-25.6-25.6V68.267C85.333,54.127,96.794,42.667,110.933,42.667z"/>
<rect x="85.333" y="110.933" style="fill:#29ABE2;" width="273.067" height="290.133"/>
<g>
	<rect x="213.333" y="426.667" style="fill:#D8445E;" width="17.067" height="17.067"/>
	<rect x="196.267" y="68.267" style="fill:#D8445E;" width="17.067" height="17.067"/>
	<rect x="230.4" y="68.267" style="fill:#D8445E;" width="17.067" height="17.067"/>
</g>
<g>
	<path style="fill:#FC9D9A;" d="M59.733,170.667H42.667V59.733C42.701,26.761,69.427,0.034,102.4,0h42.667v17.067H102.4
		c-23.552,0.026-42.641,19.115-42.667,42.667V170.667z"/>
	<rect x="42.667" y="187.733" style="fill:#FC9D9A;" width="17.067" height="17.067"/>
	<path style="fill:#FC9D9A;" d="M341.333,512h-17.067v-17.067h17.067c23.552-0.026,42.641-19.115,42.667-42.667v-153.6h17.067v153.6
		C401.033,485.239,374.306,511.966,341.333,512z"/>
	<rect x="384" y="264.533" style="fill:#FC9D9A;" width="17.067" height="17.067"/>
</g>
<path style="fill:#FE4365;" d="M452.267,145.067h-76.8l-51.2,34.133v-34.133h-25.6c-9.429,0-17.067-7.637-17.067-17.067V25.6
	c0-9.429,7.637-17.067,17.067-17.067h153.6c9.429,0,17.067,7.637,17.067,17.067V128
	C469.333,137.429,461.696,145.067,452.267,145.067z"/>
<g>
	<rect x="332.8" y="34.133" style="fill:#F9CDAD;" width="17.067" height="17.067"/>
	<rect x="366.933" y="34.133" style="fill:#F9CDAD;" width="68.267" height="17.067"/>
	<rect x="315.733" y="68.267" style="fill:#F9CDAD;" width="119.467" height="17.067"/>
	<rect x="315.733" y="102.4" style="fill:#F9CDAD;" width="85.333" height="17.067"/>
</g>
<g>
	<rect x="119.467" y="349.867" style="fill:#0071BC;" width="17.067" height="17.067"/>
	<rect x="153.6" y="349.867" style="fill:#0071BC;" width="170.667" height="17.067"/>
</g>
<path style="fill:#DA4836;" d="M256,213.333l-10.001-10.001c-4.523-4.523-10.667-7.066-17.067-7.066l0,0
	c-13.329,0-24.132,10.803-24.132,24.132l0,0c0,6.4,2.543,12.544,7.066,17.067L256,281.6l44.134-44.134
	c4.523-4.523,7.066-10.667,7.066-17.067l0,0c0-13.329-10.803-24.132-24.132-24.132l0,0c-6.4,0-12.544,2.543-17.067,7.066
	L256,213.333z"/>
<path style="fill:#E6E6E6;" d="M187.733,247.467l-10.001-10.001c-4.523-4.523-10.667-7.066-17.067-7.066l0,0
	c-13.329,0-24.132,10.803-24.132,24.132l0,0c0,6.4,2.543,12.544,7.066,17.067l44.134,44.134l44.134-44.134
	c4.523-4.523,7.066-10.667,7.066-17.067l0,0c0-13.329-10.803-24.132-24.132-24.132l0,0c-6.4,0-12.544,2.543-17.067,7.066
	L187.733,247.467z"/>
<g>
</g>
<g>
</g>
<g>
</g>
<g>
</g>
<g>
</g>
<g>
</g>
<g>
</g>
<g>
</g>
<g>
</g>
<g>
</g>
<g>
</g>
<g>
</g>
<g>
</g>
<g>
</g>
<g>
</g>
</svg>
