<?xml version="1.0" encoding="iso-8859-1"?>
<!-- Generator: Adobe Illustrator 19.0.0, SVG Export Plug-In . SVG Version: 6.00 Build 0)  -->
<svg version="1.1" id="Capa_1" xmlns="http://www.w3.org/2000/svg" xmlns:xlink="http://www.w3.org/1999/xlink" x="0px" y="0px"
	 viewBox="0 0 512 512" style="enable-background:new 0 0 512 512;" xml:space="preserve">
<circle style="fill:#686BDF;" cx="256" cy="256" r="256"/>
<path style="fill:#DAECF7;" d="M511.998,255.827c-7.495-55.754-32.863-107.27-73.319-147.726
	C389.883,59.306,325.007,32.433,256,32.433S122.117,59.306,73.321,108.1C32.865,148.557,7.498,200.073,0.002,255.827
	C0.002,255.885,0,255.942,0,256c0,141.385,114.615,256,256,256s256-114.615,256-256C512,255.942,511.998,255.885,511.998,255.827z"
	/>
<path style="fill:#C6E0F4;" d="M92.972,236.372c0-79.011,36.955-149.388,94.519-194.799c-42.769,11.685-81.972,34.33-114.17,66.528
	C32.865,148.557,7.498,200.073,0.002,255.827C0.002,255.885,0,255.942,0,256c0,141.385,114.615,256,256,256
	c43.671,0,84.782-10.947,120.756-30.228C226.127,503.556,92.972,386.689,92.972,236.372z"/>
<path style="fill:#A3CCEF;" d="M256,61.96c-126.172,0-228.82,102.648-228.82,228.82c0,68.895,30.608,130.774,78.937,172.759
	C148.251,494.02,200.022,512,256,512s107.75-17.98,149.883-48.461c48.329-41.985,78.937-103.864,78.937-172.759
	C484.82,164.608,382.172,61.96,256,61.96z"/>
<path style="fill:#85BBEB;" d="M376.749,481.772c-150.624,21.779-283.777-95.083-283.777-245.4
	c0-52.336,16.226-100.874,43.904-140.887C71.139,135.731,27.18,208.216,27.18,290.78c0,68.895,30.608,130.774,78.937,172.759
	C148.13,493.936,199.964,512,256,512C298.344,512,339.69,501.639,376.749,481.772z"/>
<path style="fill:#67AAE6;" d="M373.555,146.729c-34.163,5.469-51.433,30.149-51.433,57.113v89.377
	c0,39.268-28.618,51.684-48.199,55.586c-0.895,0.178-1.732-0.497-1.732-1.41V169.683c0-26.666,24.636-35.563,29.62-37.243
	c0.956-0.322,1.596-1.212,1.596-2.221v-0.643c0-1.434-1.162-2.596-2.596-2.596h-89.852c-1.306,0-2.365,1.059-2.365,2.365v0.875
	c0,1.009,0.641,1.899,1.596,2.221c4.984,1.681,29.619,10.577,29.619,37.243v177.712c0,0.913-0.836,1.588-1.732,1.41
	c-19.581-3.902-48.199-16.318-48.199-55.586v-89.377c0-26.966-17.273-51.648-51.442-57.114c-3.46-0.553-5.371,3.826-2.661,6.048
	c8.721,7.148,18.994,20.501,18.994,43.739v96.705c0,0,1.045,57.636,83.717,64.799c0.744,0.064,1.322,0.683,1.322,1.43v96.532
	c0,3.256-2.64,5.896-5.896,5.896l0,0c-4.425,0-8.283,3.41-8.415,7.833c-0.137,4.576,3.532,8.328,8.077,8.328h44.511
	c4.425,0,8.283-3.41,8.415-7.833c0.137-4.576-3.532-8.328-8.077-8.328l0,0c-3.443,0-6.234-2.791-6.234-6.234V359.45
	c0-0.747,0.578-1.365,1.322-1.43c82.673-7.163,83.717-64.799,83.717-64.799v-96.705c0-23.24,10.275-36.592,18.996-43.74
	C378.935,150.553,377.013,146.175,373.555,146.729z"/>
<path style="fill:#4C98E0;" d="M273.513,358.017c49.554-4.293,69.775-26.718,78.028-43.998c-3.199,3.638-7.875,5.946-13.101,5.946
	c-8.825,0-16.102-6.555-17.273-15.059c-5.084,30.123-29.759,40.415-47.244,43.899c-0.895,0.178-1.732-0.497-1.732-1.41V169.683
	c0-26.666,24.635-35.562,29.619-37.243c0.956-0.322,1.596-1.212,1.596-2.221v-0.643c0-1.434-1.162-2.596-2.596-2.596h-89.852
	c-1.306,0-2.365,1.059-2.365,2.365v0.875c0,1.009,0.64,1.899,1.596,2.221c4.984,1.681,29.619,10.577,29.619,37.243v177.712
	c0,0.913-0.836,1.588-1.732,1.41c-19.581-3.902-48.199-16.318-48.199-55.586v-89.377c0-26.966-17.273-51.648-51.442-57.114
	c-3.46-0.553-5.371,3.826-2.661,6.048c8.721,7.148,18.994,20.501,18.994,43.738v96.705c0,0,1.045,57.636,83.718,64.799
	c0.744,0.065,1.322,0.683,1.322,1.43v96.532c0,3.256-2.64,5.896-5.896,5.896c-4.425,0-8.283,3.41-8.415,7.833
	c-0.137,4.576,3.532,8.328,8.077,8.328h44.51c4.425,0,8.283-3.41,8.415-7.833c0.137-4.576-3.532-8.328-8.077-8.328
	c-3.443,0-6.234-2.791-6.234-6.234v-96.194C272.192,358.7,272.769,358.082,273.513,358.017z"/>
<g>
</g>
<g>
</g>
<g>
</g>
<g>
</g>
<g>
</g>
<g>
</g>
<g>
</g>
<g>
</g>
<g>
</g>
<g>
</g>
<g>
</g>
<g>
</g>
<g>
</g>
<g>
</g>
<g>
</g>
</svg>
