<svg id="Capa_1" enable-background="new 0 0 497 497" height="512" viewBox="0 0 497 497" width="512" xmlns="http://www.w3.org/2000/svg"><g><path d="m477.33 443.67 4.67 25.3v3.03c0 13.807-11.193 25-25 25h-417c-13.807 0-25-11.193-25-25v-3.03l2.074-30.236z" fill="#e8e8e8"/><path d="m480.468 434.521 1.532 2.724v31.724c-6.92 5.35-15.6 8.53-25 8.53h-417c-9.4 0-18.08-3.18-25-8.53v-31.896l.457-2.553h465.011z" fill="#d8d8d8"/><path d="m482 133.298v303.202c0 13.807-11.193 25-25 25h-417c-2.431 0-4.78-.347-7.002-.994-10.399-3.028-15.924-14.821-15.924-26.198l1.385-301.104 271.296-7.322z" fill="#f8f7f7"/><path d="m33 133.3v327.2c-10.4-3.02-18-12.62-18-24v-303.2l9-7.417z" fill="#e8e8e8"/><path d="m428 38.298h54c8.284 0 15 6.716 15 15v62.002l-1 1.998c0 8.284-6.716 15-15 15h-465c-8.284 0-15-6.716-15-15v-63c0-8.284 6.716-15 15-15l2-1h55z" fill="#ff8086"/><path d="m497 115.3v3c0 8.284-6.716 15-15 15h-467c-8.284 0-15-6.716-15-15v-65c0-8.29 6.72-15 15-15h3v70c0 3.866 3.134 7 7 7z" fill="#e5646e"/><g><path d="m89 74h-10c-6.627 0-12-5.373-12-12v-50c0-6.627 4.373-11 11-11l1-1h10c6.627 0 12 5.373 12 12v50l-1 1c0 6.627-4.373 11-11 11z" fill="#f8f7f7"/><path d="m101 62v1c0 6.63-5.37 12-12 12h-11c-6.63 0-12-5.37-12-12v-51c0-6.63 5.37-12 12-12h1v54c0 4.42 3.58 8 8 8z" fill="#e8e8e8"/></g><g><path d="m199 74h-10c-6.627 0-12-5.373-12-12v-50c0-6.627 4.373-11 11-11l1-1h10c6.627 0 12 5.373 12 12v50l-1 1c0 6.627-4.373 11-11 11z" fill="#f8f7f7"/><path d="m211 62v1c0 6.63-5.37 12-12 12h-11c-6.63 0-12-5.37-12-12v-51c0-6.63 5.37-12 12-12h1v54c0 4.42 3.58 8 8 8z" fill="#e8e8e8"/></g><g><path d="m309 74h-10c-6.627 0-12-5.373-12-12v-50c0-6.627 4.373-11 11-11l1-1h10c6.627 0 12 5.373 12 12v50l-1 1c0 6.627-4.373 11-11 11z" fill="#f8f7f7"/><path d="m321 62v1c0 6.63-5.37 12-12 12h-11c-6.63 0-12-5.37-12-12v-51c0-6.63 5.37-12 12-12h1v54c0 4.42 3.58 8 8 8z" fill="#e8e8e8"/></g><g><path d="m419 74h-10c-6.627 0-12-5.373-12-12v-50c0-6.627 4.373-11 11-11l1-1h10c6.627 0 12 5.373 12 12v50l-1 1c0 6.627-4.373 11-11 11z" fill="#f8f7f7"/><path d="m431 62v1c0 6.63-5.37 12-12 12h-11c-6.63 0-12-5.37-12-12v-51c0-6.63 5.37-12 12-12h1v54c0 4.42 3.58 8 8 8z" fill="#e8e8e8"/></g><path d="m420.936 286.5c0-31.756-25.744-57.5-57.5-57.5-13.952 0-26.743 4.969-36.7 13.233-4.367 3.624-7.143 8.431-10.279 13.182-5.989 9.075-9.191 19.321-9.191 31.008 0 31.756 24.414 56.481 56.17 56.481 12.498 0 23.27-3.526 32.702-10.298 5.335-3.83 10.781-7.916 14.533-13.309 6.472-9.302 10.265-20.607 10.265-32.797z" fill="#ffe07d"/><path d="m410.9 318.97c-10.36 15.12-27.76 25.03-47.46 25.03-31.76 0-57.5-25.74-57.5-57.5 0-17.92 8.19-33.92 21.04-44.47-6.33 9.24-10.04 20.42-10.04 32.47 0 31.76 25.74 57.5 57.5 57.5 13.84 0 26.53-4.89 36.46-13.03z" fill="#ffd064"/><g><path d="m363.412 319.853c-6.886 0-13.612-2.27-18.939-6.39-3.276-2.534-3.878-7.245-1.344-10.521 2.536-3.276 7.245-3.877 10.521-1.344 2.713 2.099 6.18 3.255 9.762 3.255 3.814 0 7.45-1.292 10.236-3.639 3.166-2.668 7.899-2.264 10.567.905 2.669 3.168 2.264 7.899-.905 10.567-5.486 4.622-12.552 7.167-19.898 7.167z" fill="#ffd064"/></g><g><path d="m381.266 286.423c-4.143 0-7.5-3.357-7.5-7.5v-13.372c0-4.143 3.357-7.5 7.5-7.5s7.5 3.357 7.5 7.5v13.372c0 4.142-3.358 7.5-7.5 7.5z" fill="#ffd064"/></g><g><path d="m345.606 286.423c-4.143 0-7.5-3.357-7.5-7.5v-13.372c0-4.143 3.357-7.5 7.5-7.5s7.5 3.357 7.5 7.5v13.372c0 4.142-3.357 7.5-7.5 7.5z" fill="#ffd064"/></g><g><g fill="#ffe07d"><path d="m103 229h-25c-2.761 0-5 2.239-5 5v25c0 2.761 2.239 5 5 5h25c2.761 0 5-2.239 5-5v-25c0-2.761-2.239-5-5-5z"/><path d="m173 229h-25c-2.761 0-5 2.239-5 5v25c0 2.761 2.239 5 5 5h25c2.761 0 5-2.239 5-5v-25c0-2.761-2.239-5-5-5z"/><path d="m243 229h-25c-2.761 0-5 2.239-5 5v25c0 2.761 2.239 5 5 5h25c2.761 0 5-2.239 5-5v-25c0-2.761-2.239-5-5-5z"/><path d="m103 299h-25c-2.761 0-5 2.239-5 5v25c0 2.761 2.239 5 5 5h25c2.761 0 5-2.239 5-5v-25c0-2.761-2.239-5-5-5z"/></g><path d="m173 299h-25c-2.761 0-5 2.239-5 5v25c0 2.761 2.239 5 5 5h25c2.761 0 5-2.239 5-5v-25c0-2.761-2.239-5-5-5z" fill="#bde4ff"/><path d="m243 299h-25c-2.761 0-5 2.239-5 5v25c0 2.761 2.239 5 5 5h25c2.761 0 5-2.239 5-5v-25c0-2.761-2.239-5-5-5z" fill="#bde4ff"/><path d="m103 369h-25c-2.761 0-5 2.239-5 5v25c0 2.761 2.239 5 5 5h25c2.761 0 5-2.239 5-5v-25c0-2.761-2.239-5-5-5z" fill="#bde4ff"/><path d="m173 369h-25c-2.761 0-5 2.239-5 5v25c0 2.761 2.239 5 5 5h25c2.761 0 5-2.239 5-5v-25c0-2.761-2.239-5-5-5z" fill="#ccf49f"/><path d="m243 369h-25c-2.761 0-5 2.239-5 5v25c0 2.761 2.239 5 5 5h25c2.761 0 5-2.239 5-5v-25c0-2.761-2.239-5-5-5z" fill="#ccf49f"/></g><g><path d="m424 411.5h-121c-4.143 0-7.5-3.357-7.5-7.5s3.357-7.5 7.5-7.5h121c4.143 0 7.5 3.357 7.5 7.5s-3.357 7.5-7.5 7.5z" fill="#e8e8e8"/></g><g><path d="m402 381.5h-77c-4.143 0-7.5-3.357-7.5-7.5s3.357-7.5 7.5-7.5h77c4.143 0 7.5 3.357 7.5 7.5s-3.357 7.5-7.5 7.5z" fill="#e8e8e8"/></g><g><path d="m424 196.5h-351c-4.143 0-7.5-3.357-7.5-7.5s3.357-7.5 7.5-7.5h351c4.143 0 7.5 3.357 7.5 7.5s-3.357 7.5-7.5 7.5z" fill="#e8e8e8"/></g></g></svg>