<svg height="512pt" viewBox="-86 0 512 512" width="512pt" xmlns="http://www.w3.org/2000/svg"><path d="m170.144531 222.992188c-14.222656 0-26.71875-3.902344-36.941406-10.433594v36.066406c18.945313 23.386719 54.621094 23.386719 73.566406 0v-37.039062c-10.417969 7.1875-23.035156 11.40625-36.625 11.40625zm0 0" fill="#f0a479"/><path d="m164.109375 222.746094c-11.738281-.941406-22.160156-4.597656-30.90625-10.1875v36.066406c8.109375 10.011719 19.289063 15.722656 30.90625 17.164062zm0 0" fill="#e5966e"/><path d="m304.082031 283.21875-72.332031-28.011719c-2.636719 8.296875-7.867188 15.644531-15.191406 20.707031-27.878906 19.277344-65.265625 19.277344-93.144532 0-7.320312-5.0625-12.554687-12.40625-15.191406-20.699218l-72.230468 28.003906s-35.992188 14.796875-35.992188 55.828125v88.449219h47.988281c6.625 0 11.992188 5.371094 11.992188 11.996094v72.507812h220.113281v-72.507812c0-6.625 5.367188-11.992188 11.992188-11.992188h47.984374c0-33.46875 0-68.859375 0-88.453125.003907-41.03125-35.988281-55.828125-35.988281-55.828125zm0 0" fill="#00c3ff"/><path d="m54.855469 275.828125-18.734375 7.261719s-35.992188 14.796875-35.992188 55.828125v88.453125h30.90625c0-33.46875 0-83.578125 0-103.171875 0-25.019531 13.375-40.269531 23.820313-48.371094zm0 0" fill="#00aaf0"/><path d="m206.769531 245.53125c-18.945312 23.390625-54.621093 23.390625-73.566406 0l-25.523437 9.894531c2.417968 9.046875 7.875 17.113281 15.734374 22.550781 27.878907 19.277344 65.265626 19.277344 93.144532 0 7.863281-5.4375 13.320312-13.507812 15.738281-22.558593zm0 0" fill="#00aaf0"/><path d="m246.609375 346.476562c-11.273437.011719-15.878906 9.09375-16.222656 9.496094-1.304688 1.492188-3.039063 1.800782-4.800781-.035156-6.054688-10.652344-20.613282-12.679688-29.324219-3.957031-3.511719 3.519531-5.445313 8.191406-5.441407 13.152343.023438 20.800782 18.367188 37.226563 36.386719 45.730469.269531.128907.558594.191407.851563.191407.292968 0 .582031-.0625.855468-.191407 2.863282-1.359375 10.335938-5.199219 17.808594-11.480469 12.277344-10.316406 18.496094-21.867187 18.484375-34.328124-.011719-10.242188-8.351562-18.578126-18.597656-18.578126zm0 0" fill="#d665d3"/><path d="m221.730469 365.132812c-.003907-3.742187 1.09375-7.3125 3.136719-10.351562-6.421876-9.628906-20.21875-11.195312-28.605469-2.800781-3.511719 3.519531-5.445313 8.191406-5.441407 13.152343.023438 20.800782 18.367188 37.226563 36.386719 45.730469.269531.128907.5625.191407.851563.191407.292968 0 .585937-.0625.855468-.191407 2.441407-1.160156 8.222657-4.121093 14.5-8.851562-12.101562-9.125-21.671874-21.859375-21.683593-36.878907zm0 0" fill="#c64ac6"/><path d="m62.042969 512v-74.570312c0-6.621094-5.371094-11.992188-11.992188-11.992188h-50.050781v74.570312c0 6.621094 5.371094 11.992188 11.992188 11.992188h51.324218c-.421875 0-.851562 0-1.273437 0zm0 0" fill="#f0a479"/><path d="m30.992188 500.007812c0-12.671874 0-50.832031 0-74.570312h-30.992188v74.570312c0 6.621094 5.371094 11.992188 11.992188 11.992188h30.996093c-6.625 0-11.996093-5.371094-11.996093-11.992188zm0 0" fill="#e5966e"/><path d="m340.074219 424.160156v1.277344h-50.046875c-6.625 0-11.992188 5.371094-11.992188 11.992188v74.570312c-.421875 0-.851562 0-1.277344 0h51.320313c6.625 0 11.996094-5.371094 11.996094-11.992188 0-12.898437 0-52.144531 0-75.847656zm0 0" fill="#f0a479"/><path d="m321.683594 425.4375h-31.65625c-6.625 0-11.996094 5.371094-11.996094 11.992188v74.570312h31.660156v-74.570312c0-6.621094 5.371094-11.992188 11.992188-11.992188zm0 0" fill="#e5966e"/><path d="m105.433594 116.09375v-4.179688c0-3.488281 2.976562-6.242187 6.429687-5.980468 34.035157 2.445312 66.613281-6.3125 92.800781-23.417969 2.445313-1.597656 5.683594-1.203125 7.671876.933594 22.390624 24.066406 20.195312 21.078125 20.195312 24.21875v4.933593.167969 3.25c8.605469-.558593 18.796875 7.730469 24.480469 12.996094v-40.984375c0-48.621094-39.414063-88.03125-88.03125-88.03125-48.621094 0-88.03125 39.410156-88.03125 88.03125v36.539062c5.984375-5.464843 16.539062-8.734374 24.484375-8.476562zm0 0" fill="#707487"/><path d="m111.855469 88.03125c0-43.34375 31.332031-79.34375 72.578125-86.652344-5.019532-.890625-10.179688-1.378906-15.453125-1.378906-48.621094 0-88.03125 39.410156-88.03125 88.03125v36.539062c5.984375-5.464843 16.539062-8.738281 24.484375-8.476562v-4.183594c0-3.484375 2.972656-6.234375 6.421875-5.976562zm0 0" fill="#52586d"/><path d="m233.558594 116.0625v48.484375c0 .613281-.027344 1.21875-.046875 1.828125 16.070312 1.066406 30.4375-10.769531 30.4375-25.15625 0-14.410156-14.371094-26.195312-30.390625-25.15625zm0 0" fill="#f0a479"/><path d="m254.164062 122.378906c-5.53125-4.328125-12.875-6.816406-20.605468-6.316406v48.488281c0 .609375-.027344 1.214844-.046875 1.824219 7.757812.515625 15.113281-1.980469 20.652343-6.316406zm0 0" fill="#e5966e"/><path d="m104.402344 161.414062v-48.410156c-14.296875-.46875-30.390625 10.5-30.390625 25.078125 0 14.371094 14.34375 26.226563 30.433593 25.15625-.015624-.605469-.042968-1.214843-.042968-1.824219zm0 0" fill="#f0a479"/><path d="m104.402344 156.925781c-5.9375-4.648437-9.785156-11.40625-9.785156-18.84375 0-7.269531 4-13.640625 9.785156-18.144531v-6.933594c-14.296875-.46875-30.390625 10.5-30.390625 25.078125 0 14.371094 14.34375 26.226563 30.433593 25.15625-.015624-.605469-.042968-1.214843-.042968-1.824219zm0 0" fill="#e5966e"/><path d="m212.335938 78.296875c-1.988282-2.136719-5.226563-2.53125-7.671876-.933594-26.1875 17.109375-60.824218 27.921875-94.859374 25.480469-3.453126-.265625-6.433594 2.492188-6.433594 5.976562v52.59375c0 33.800782 26.484375 64.671876 66.546875 64.671876 35.660156 0 64.671875-29.011719 64.671875-64.671876v-56.835937c0-3.144531.136718-2.214844-22.253906-26.28125zm0 0" fill="#f7b594"/><path d="m134.28125 161.414062v-59.015624c-8.113281.84375-16.3125 1.03125-24.476562.445312-3.453126-.265625-6.433594 2.492188-6.433594 5.976562v52.59375c0 33.800782 26.484375 64.671876 66.546875 64.671876 5.136719 0 10.132812-.621094 14.925781-1.757813-30.964844-6.964844-50.5625-33.847656-50.5625-62.914063zm0 0" fill="#f0a479"/></svg>