<svg id="Layer_5" enable-background="new 0 0 61.537 62" height="512" viewBox="0 0 61.537 62" width="512" xmlns="http://www.w3.org/2000/svg" xmlns:xlink="http://www.w3.org/1999/xlink"><linearGradient id="SVGID_1_" gradientUnits="userSpaceOnUse" x1="30.769" x2="30.769" y1="62" y2="0"><stop offset="0" stop-color="#9f2fff"/><stop offset="1" stop-color="#0bb1d3"/></linearGradient><path d="m25.769 20v-1h2v1c0 1.103.897 2 2 2h2c1.103 0 2-.897 2-2s-.897-2-2-2h-2c-2.206 0-4-1.794-4-4s1.794-4 4-4v-2h2v2c2.206 0 4 1.794 4 4h-2c0-1.103-.897-2-2-2h-2c-1.103 0-2 .897-2 2s.897 2 2 2h2c2.206 0 4 1.794 4 4s-1.794 4-4 4v2h-2v-2c-2.206 0-4-1.794-4-4zm-12-3c0-9.374 7.626-17 17-17s17 7.626 17 17-7.626 17-17 17-17-7.626-17-17zm17 11c6.065 0 11-4.935 11-11s-4.935-11-11-11-11 4.935-11 11 4.934 11 11 11zm-9.861.275c.971.85 2.05 1.573 3.217 2.153l.766-1.848c-.926-.472-1.787-1.048-2.569-1.718zm5.062 2.924c1.206.409 2.479.663 3.799.751v-2c-1.051-.081-2.067-.281-3.034-.598zm5.799.75c1.32-.088 2.593-.342 3.799-.751l-.765-1.847c-.967.317-1.983.517-3.034.598zm5.644-1.521c1.167-.58 2.246-1.303 3.217-2.153l-1.414-1.414c-.782.671-1.643 1.246-2.569 1.718zm4.631-3.567c.85-.971 1.573-2.05 2.153-3.217l-1.848-.766c-.472.925-1.048 1.787-1.718 2.569zm2.923-5.062c.409-1.206.663-2.479.751-3.799h-2c-.081 1.051-.281 2.067-.598 3.034zm.751-5.799c-.088-1.32-.342-2.593-.751-3.799l-1.847.765c.317.967.517 1.983.598 3.034zm-1.521-5.644c-.58-1.167-1.303-2.246-2.153-3.217l-1.414 1.414c.67.782 1.246 1.643 1.718 2.569zm-3.567-4.631c-.971-.85-2.05-1.573-3.217-2.153l-.766 1.848c.926.472 1.787 1.048 2.569 1.718zm-5.063-2.924c-1.206-.409-2.479-.663-3.799-.751v2c1.051.081 2.067.281 3.034.598zm-5.798-.75c-1.32.088-2.593.342-3.799.751l.765 1.847c.967-.317 1.983-.517 3.034-.598zm-5.645 1.521c-1.167.58-2.246 1.303-3.217 2.153l1.414 1.414c.782-.671 1.643-1.246 2.569-1.718zm-4.631 3.567c-.85.971-1.573 2.05-2.153 3.217l1.848.766c.472-.925 1.048-1.787 1.718-2.569zm-2.923 5.062c-.409 1.206-.663 2.479-.751 3.799h2c.081-1.051.281-2.067.598-3.034zm-.751 5.799c.088 1.32.342 2.593.751 3.799l1.847-.765c-.316-.967-.517-1.983-.598-3.034zm1.522 5.644c.58 1.167 1.303 2.246 2.153 3.217l1.414-1.414c-.67-.782-1.246-1.643-1.718-2.569zm-4.572 35.356v-20c0-1.654 1.346-3 3-3h30c1.654 0 3 1.346 3 3v20c0 1.654-1.346 3-3 3h-30c-1.655 0-3-1.346-3-3zm34 0v-11h-32v11c0 .551.448 1 1 1h30c.551 0 1-.449 1-1zm0-13v-2h-32v2zm-32-7v3h32v-3c0-.551-.448-1-1-1h-30c-.552 0-1 .449-1 1zm16 11h14v8h-14zm8 6v-4h-2v4zm4-4h-2v4h2zm-10 4h2v-4h-2zm-16 2h8v-2h-8zm0-4h8v-2h-8zm44.768-6.36-1.537-1.28-1.231 1.478v-35.838h-2v38.238l-1 1.2-1-1.2v-38.238h-2v35.838l-1.231-1.478-1.538 1.28 5.769 6.922zm-2.768-47.64h-2v2h2zm0 8h-2v2h2zm0-4h-2v2h2zm-56 10.162v35.838h2v-38.238l1-1.2 1 1.2v38.238h2v-35.838l1.231 1.478 1.537-1.28-5.768-6.922-5.769 6.922 1.537 1.28zm2 37.838h-2v2h2zm-2 10h2v-2h-2zm2-6h-2v2h2z" fill="url(#SVGID_1_)"/></svg>